<svg width="31" height="27" viewBox="0 0 31 27" fill="none" xmlns="http://www.w3.org/2000/svg">
<path d="M14.0052 26.3125L12.0729 24.5261C9.05903 21.7309 6.44618 19.0634 4.23438 16.5235C2.02257 13.9835 0.916667 11.3282 0.916667 8.55733C0.916667 6.36983 1.65191 4.54084 3.1224 3.07035C4.59288 1.59987 6.40972 0.864624 8.57292 0.864624C9.8125 0.864624 11.0399 1.16237 12.2552 1.75785C13.4705 2.35334 14.5521 3.33164 15.5 4.69275C16.5694 3.33164 17.6753 2.35334 18.8177 1.75785C19.9601 1.16237 21.1632 0.864624 22.4271 0.864624C24.5903 0.864624 26.4071 1.59987 27.8776 3.07035C29.3481 4.54084 30.0833 6.36983 30.0833 8.55733C30.0833 11.3282 28.9774 13.9835 26.7656 16.5235C24.5538 19.0634 21.941 21.7309 18.9271 24.5261L16.9948 26.3125C16.5816 26.7014 16.0833 26.8959 15.5 26.8959C14.9167 26.8959 14.4184 26.7014 14.0052 26.3125ZM14.5521 7.099C13.8958 5.90803 13.033 4.9358 11.9635 4.18233C10.8941 3.42886 9.76389 3.05212 8.57292 3.05212C6.96875 3.05212 5.65625 3.56862 4.63542 4.6016C3.61458 5.63459 3.10417 6.95317 3.10417 8.55733C3.10417 9.96705 3.57812 11.4436 4.52604 12.987C5.47396 14.5304 6.60417 16.0313 7.91667 17.4896C9.22917 18.948 10.5903 20.303 12 21.5547C13.4097 22.8065 14.5764 23.8577 15.5 24.7084C16.4236 23.882 17.5903 22.8368 19 21.573C20.4097 20.3091 21.7708 18.9419 23.0833 17.4714C24.3958 16.0009 25.526 14.494 26.474 12.9506C27.4219 11.4072 27.8958 9.94275 27.8958 8.55733C27.8958 6.95317 27.3793 5.63459 26.3464 4.6016C25.3134 3.56862 24.0069 3.05212 22.4271 3.05212C21.2118 3.05212 20.0755 3.42278 19.0182 4.1641C17.9609 4.90542 17.0799 5.88372 16.375 7.099C16.2535 7.29344 16.1198 7.4332 15.974 7.51827C15.8281 7.60334 15.658 7.64587 15.4635 7.64587C15.2691 7.64587 15.0929 7.60334 14.9349 7.51827C14.7769 7.4332 14.6493 7.29344 14.5521 7.099Z" fill="url(#paint0_linear_81_38)"/>
<defs>
<linearGradient id="paint0_linear_81_38" x1="6.41346" y1="0.864628" x2="28.6529" y2="4.58202" gradientUnits="userSpaceOnUse">
<stop stop-color="#02A4FF"/>
<stop offset="1" stop-color="#D96DFF"/>
</linearGradient>
</defs>
</svg>
