<svg width="31" height="29" viewBox="0 0 31 29" fill="none" xmlns="http://www.w3.org/2000/svg">
<path d="M7.84374 18.4531H17.1042C17.3958 18.4531 17.645 18.3498 17.8516 18.1432C18.0581 17.9366 18.1614 17.6753 18.1614 17.3594C18.1614 17.0434 18.0581 16.7821 17.8516 16.5755C17.645 16.3689 17.3837 16.2656 17.0677 16.2656H7.80728C7.51561 16.2656 7.26648 16.3689 7.05989 16.5755C6.85329 16.7821 6.74999 17.0434 6.74999 17.3594C6.74999 17.6753 6.85329 17.9366 7.05989 18.1432C7.26648 18.3498 7.52777 18.4531 7.84374 18.4531ZM7.84374 13.7135H23.1927C23.4844 13.7135 23.7335 13.6102 23.9401 13.4036C24.1467 13.197 24.25 12.9358 24.25 12.6198C24.25 12.3038 24.1467 12.0425 23.9401 11.8359C23.7335 11.6293 23.4722 11.526 23.1562 11.526H7.80728C7.51561 11.526 7.26648 11.6293 7.05989 11.8359C6.85329 12.0425 6.74999 12.3038 6.74999 12.6198C6.74999 12.9358 6.85329 13.197 7.05989 13.4036C7.26648 13.6102 7.52777 13.7135 7.84374 13.7135ZM7.84374 8.97395H23.1927C23.4844 8.97395 23.7335 8.87065 23.9401 8.66405C24.1467 8.45746 24.25 8.19617 24.25 7.8802C24.25 7.56423 24.1467 7.30294 23.9401 7.09634C23.7335 6.88975 23.4722 6.78645 23.1562 6.78645H7.80728C7.51561 6.78645 7.26648 6.88975 7.05989 7.09634C6.85329 7.30294 6.74999 7.56423 6.74999 7.8802C6.74999 8.19617 6.85329 8.45746 7.05989 8.66405C7.26648 8.87065 7.52777 8.97395 7.84374 8.97395ZM0.916656 27.4583V3.10416C0.916656 2.54513 1.13541 2.04079 1.57291 1.59114C2.01041 1.14148 2.52082 0.916656 3.10416 0.916656H27.8958C28.4548 0.916656 28.9592 1.14148 29.4088 1.59114C29.8585 2.04079 30.0833 2.54513 30.0833 3.10416V22.0625C30.0833 22.6215 29.8585 23.1259 29.4088 23.5755C28.9592 24.0252 28.4548 24.25 27.8958 24.25H6.74999L2.77603 28.2239C2.43575 28.5642 2.04079 28.6432 1.59114 28.4609C1.14148 28.2786 0.916656 27.9444 0.916656 27.4583ZM3.10416 24.7969L5.83853 22.0625H27.8958V3.10416H3.10416V24.7969ZM3.10416 3.10416V24.7969V3.10416Z" fill="url(#paint0_linear_87_74)"/>
<defs>
<linearGradient id="paint0_linear_87_74" x1="6.41345" y1="0.91666" x2="28.7214" y2="4.42852" gradientUnits="userSpaceOnUse">
<stop stop-color="#02A4FF"/>
<stop offset="1" stop-color="#D96DFF"/>
</linearGradient>
</defs>
</svg>
