<svg width="25" height="25" viewBox="0 0 25 25" fill="none" xmlns="http://www.w3.org/2000/svg">
<path d="M3.38543 24.1667C2.68057 24.1667 2.079 23.9175 1.58074 23.4193C1.08248 22.921 0.833344 22.3195 0.833344 21.6146V15.0521C0.833344 14.3472 1.08248 13.7457 1.58074 13.2474C2.079 12.7491 2.68057 12.5 3.38543 12.5C4.09029 12.5 4.69185 12.7491 5.19011 13.2474C5.68838 13.7457 5.93751 14.3472 5.93751 15.0521V21.6146C5.93751 22.3195 5.68838 22.921 5.19011 23.4193C4.69185 23.9175 4.09029 24.1667 3.38543 24.1667ZM12.5 24.1667C11.7951 24.1667 11.1936 23.9175 10.6953 23.4193C10.1971 22.921 9.94793 22.3195 9.94793 21.6146V3.38543C9.94793 2.68057 10.1971 2.079 10.6953 1.58074C11.1936 1.08248 11.7951 0.833344 12.5 0.833344C13.2049 0.833344 13.8064 1.08248 14.3047 1.58074C14.803 2.079 15.0521 2.68057 15.0521 3.38543V21.6146C15.0521 22.3195 14.803 22.921 14.3047 23.4193C13.8064 23.9175 13.2049 24.1667 12.5 24.1667ZM21.6146 24.1667C20.9097 24.1667 20.3082 23.9175 19.8099 23.4193C19.3116 22.921 19.0625 22.3195 19.0625 21.6146V10.6771C19.0625 9.97223 19.3116 9.37067 19.8099 8.87241C20.3082 8.37414 20.9097 8.12501 21.6146 8.12501C22.3195 8.12501 22.921 8.37414 23.4193 8.87241C23.9175 9.37067 24.1667 9.97223 24.1667 10.6771V21.6146C24.1667 22.3195 23.9175 22.921 23.4193 23.4193C22.921 23.9175 22.3195 24.1667 21.6146 24.1667Z" fill="url(#paint0_linear_87_80)"/>
<defs>
<linearGradient id="paint0_linear_87_80" x1="5.23078" y1="0.833347" x2="23.1213" y2="3.50232" gradientUnits="userSpaceOnUse">
<stop stop-color="#02A4FF"/>
<stop offset="1" stop-color="#D96DFF"/>
</linearGradient>
</defs>
</svg>
