<svg width="31" height="27" viewBox="0 0 31 27" fill="none" xmlns="http://www.w3.org/2000/svg">
<path d="M3.10416 26.625C2.49652 26.625 1.98002 26.4123 1.55468 25.987C1.12933 25.5616 0.916656 25.0451 0.916656 24.4375V1.61458C0.916656 1.27431 1.00173 1.06771 1.17186 0.994792C1.342 0.921875 1.5486 1.00694 1.79166 1.25L3.35936 2.81771L4.99999 1.17708C5.12152 1.05556 5.24305 0.970486 5.36457 0.921875C5.4861 0.873264 5.61978 0.848958 5.76561 0.848958C5.91145 0.848958 6.04513 0.867188 6.16666 0.903646C6.28818 0.940104 6.40971 1.0191 6.53124 1.14063L8.20832 2.81771L9.88541 1.14063C10.0069 1.0191 10.1285 0.940104 10.25 0.903646C10.3715 0.867188 10.5052 0.848958 10.651 0.848958C10.7969 0.848958 10.9305 0.873264 11.0521 0.921875C11.1736 0.970486 11.2951 1.05556 11.4167 1.17708L13.0573 2.81771L14.7344 1.14063C14.8559 1.0191 14.9774 0.934028 15.0989 0.885417C15.2205 0.836805 15.3542 0.8125 15.5 0.8125C15.6458 0.8125 15.7795 0.836805 15.901 0.885417C16.0226 0.934028 16.1441 1.0191 16.2656 1.14063L17.9427 2.81771L19.5833 1.17708C19.7048 1.05556 19.8264 0.970486 19.9479 0.921875C20.0694 0.873264 20.2031 0.848958 20.3489 0.848958C20.4948 0.848958 20.6285 0.867188 20.75 0.903646C20.8715 0.940104 20.993 1.0191 21.1146 1.14063L22.7917 2.81771L24.4687 1.14063C24.5903 1.0191 24.7118 0.940104 24.8333 0.903646C24.9548 0.867188 25.0885 0.848958 25.2344 0.848958C25.3802 0.848958 25.5139 0.873264 25.6354 0.921875C25.7569 0.970486 25.8785 1.05556 26 1.17708L27.6406 2.81771L29.2083 1.25C29.4514 1.00694 29.658 0.921875 29.8281 0.994792C29.9983 1.06771 30.0833 1.27431 30.0833 1.61458V24.4375C30.0833 25.0451 29.8706 25.5616 29.4453 25.987C29.02 26.4123 28.5035 26.625 27.8958 26.625H3.10416ZM3.10416 24.4375H14.4062V14.2292H3.10416V24.4375ZM16.5937 24.4375H27.8958V20.4271H16.5937V24.4375ZM16.5937 18.2396H27.8958V14.2292H16.5937V18.2396ZM3.10416 12.0417H27.8958V7.66667H3.10416V12.0417Z" fill="url(#paint0_linear_87_76)"/>
<defs>
<linearGradient id="paint0_linear_87_76" x1="6.41345" y1="0.812504" x2="28.6426" y2="4.55967" gradientUnits="userSpaceOnUse">
<stop stop-color="#02A4FF"/>
<stop offset="1" stop-color="#D96DFF"/>
</linearGradient>
</defs>
</svg>
