<svg width="32" height="32" viewBox="0 0 32 32" fill="none" xmlns="http://www.w3.org/2000/svg">
<path d="M15 19.9V23.2C15 23.4889 15.0944 23.7278 15.2833 23.9167C15.4722 24.1056 15.7111 24.2 16 24.2C16.2889 24.2 16.5278 24.1056 16.7167 23.9167C16.9056 23.7278 17 23.4889 17 23.2V19.9H20.3333C20.6222 19.9 20.8611 19.8056 21.05 19.6167C21.2389 19.4278 21.3333 19.1889 21.3333 18.9C21.3333 18.6111 21.2389 18.3722 21.05 18.1834C20.8611 17.9945 20.6222 17.9 20.3333 17.9H17V14.5667C17 14.2778 16.9056 14.0389 16.7167 13.85C16.5278 13.6611 16.2889 13.5667 16 13.5667C15.7111 13.5667 15.4722 13.6611 15.2833 13.85C15.0944 14.0389 15 14.2778 15 14.5667V17.9H11.6667C11.3778 17.9 11.1389 17.9945 10.95 18.1834C10.7611 18.3722 10.6667 18.6111 10.6667 18.9C10.6667 19.1889 10.7611 19.4278 10.95 19.6167C11.1389 19.8056 11.3778 19.9 11.6667 19.9H15ZM7.33334 29.3334C6.8 29.3334 6.33334 29.1334 5.93334 28.7334C5.53334 28.3334 5.33334 27.8667 5.33334 27.3334V4.66669C5.33334 4.13335 5.53334 3.66669 5.93334 3.26669C6.33334 2.86669 6.8 2.66669 7.33334 2.66669H18.5333C18.8 2.66669 19.0611 2.72224 19.3167 2.83335C19.5722 2.94446 19.7889 3.08891 19.9667 3.26669L26.0667 9.36669C26.2444 9.54446 26.3889 9.76113 26.5 10.0167C26.6111 10.2722 26.6667 10.5334 26.6667 10.8V27.3334C26.6667 27.8667 26.4667 28.3334 26.0667 28.7334C25.6667 29.1334 25.2 29.3334 24.6667 29.3334H7.33334ZM18.3667 9.86669V4.66669H7.33334V27.3334H24.6667V10.8667H19.3667C19.0778 10.8667 18.8389 10.7722 18.65 10.5834C18.4611 10.3945 18.3667 10.1556 18.3667 9.86669ZM7.33334 4.66669V10.8667V4.66669V27.3334V4.66669Z" fill="#555555"/>
</svg>
