<svg width="50" height="50" viewBox="0 0 50 50" fill="none" xmlns="http://www.w3.org/2000/svg">
<g clip-path="url(#clip0_87_85)">
<path d="M24.7487 35.0608C23.2879 36.5216 21.5692 37.2521 19.5928 37.2521C17.6163 37.2521 15.8976 36.5216 14.4368 35.0608C12.9759 33.5999 12.2455 31.8812 12.2455 29.9048C12.2455 27.9283 12.9759 26.2097 14.4368 24.7488L18.046 21.1396C18.2694 20.9162 18.5272 20.8045 18.8194 20.8045C19.1115 20.8045 19.3693 20.9162 19.5928 21.1396C19.8162 21.363 19.9279 21.6208 19.9279 21.913C19.9279 22.2052 19.8162 22.463 19.5928 22.6864L15.9836 26.2956C14.9524 27.3268 14.4368 28.5299 14.4368 29.9048C14.4368 31.2797 14.9524 32.4828 15.9836 33.514C17.0148 34.5452 18.2178 35.0608 19.5927 35.0608C20.9677 35.0608 22.1707 34.5452 23.2019 33.514L26.8111 29.9048C27.0346 29.6814 27.2924 29.5696 27.5845 29.5696C27.8767 29.5696 28.1345 29.6814 28.3579 29.9048C28.5814 30.1282 28.6931 30.386 28.6931 30.6782C28.6931 30.9704 28.5814 31.2282 28.3579 31.4516L24.7487 35.0608ZM22.2996 28.7447C22.0762 28.9681 21.8184 29.0798 21.5262 29.0798C21.2341 29.0798 20.9763 28.9681 20.7528 28.7447C20.5294 28.5213 20.4177 28.2635 20.4177 27.9713C20.4177 27.6791 20.5294 27.4213 20.7528 27.1979L27.1978 20.7529C27.4213 20.5295 27.6791 20.4178 27.9712 20.4178C28.2634 20.4178 28.5212 20.5295 28.7446 20.7529C28.9681 20.9763 29.0798 21.2341 29.0798 21.5263C29.0798 21.8185 28.9681 22.0763 28.7446 22.2997L22.2996 28.7447ZM31.4515 28.358C31.2281 28.5814 30.9703 28.6931 30.6781 28.6931C30.3859 28.6931 30.1281 28.5814 29.9047 28.358C29.6813 28.1346 29.5696 27.8768 29.5696 27.5846C29.5696 27.2924 29.6813 27.0346 29.9047 26.8112L33.5139 23.202C34.5451 22.1708 35.0607 20.9677 35.0607 19.5928C35.0607 18.2179 34.5451 17.0148 33.5139 15.9836C32.4827 14.9524 31.2797 14.4368 29.9047 14.4368C28.5298 14.4368 27.3267 14.9524 26.2955 15.9836L22.6863 19.5928C22.4629 19.8162 22.2051 19.928 21.9129 19.928C21.6208 19.928 21.363 19.8162 21.1395 19.5928C20.9161 19.3694 20.8044 19.1116 20.8044 18.8194C20.8044 18.5272 20.9161 18.2694 21.1395 18.046L24.7487 14.4368C26.2096 12.976 27.9283 12.2455 29.9047 12.2455C31.8812 12.2455 33.5998 12.976 35.0607 14.4368C36.5216 15.8977 37.252 17.6164 37.252 19.5928C37.252 21.5693 36.5216 23.2879 35.0607 24.7488L31.4515 28.358Z" fill="#555555"/>
</g>
<defs>
<clipPath id="clip0_87_85">
<rect width="35" height="35" fill="white" transform="translate(0 24.7488) rotate(-45)"/>
</clipPath>
</defs>
</svg>
