<svg width="24" height="24" viewBox="0 0 24 24" fill="none" xmlns="http://www.w3.org/2000/svg">
<g clip-path="url(#clip0_49_47)">
<path d="M19 3.05176e-05H5C3.67441 0.00161838 2.40356 0.528912 1.46622 1.46625C0.528882 2.40359 0.00158786 3.67444 0 5.00003L0 19C0.00158786 20.3256 0.528882 21.5965 1.46622 22.5338C2.40356 23.4711 3.67441 23.9984 5 24H19C20.3256 23.9984 21.5964 23.4711 22.5338 22.5338C23.4711 21.5965 23.9984 20.3256 24 19V5.00003C23.9984 3.67444 23.4711 2.40359 22.5338 1.46625C21.5964 0.528912 20.3256 0.00161838 19 3.05176e-05V3.05176e-05ZM5 2.00003H19C19.7956 2.00003 20.5587 2.3161 21.1213 2.87871C21.6839 3.44132 22 4.20438 22 5.00003V19C21.9983 19.4455 21.8957 19.8848 21.7 20.285L12.537 11.122C12.0727 10.6576 11.5214 10.2892 10.9147 10.0378C10.308 9.78647 9.65772 9.6571 9.001 9.6571C8.34428 9.6571 7.69399 9.78647 7.08728 10.0378C6.48056 10.2892 5.92931 10.6576 5.465 11.122L2 14.586V5.00003C2 4.20438 2.31607 3.44132 2.87868 2.87871C3.44129 2.3161 4.20435 2.00003 5 2.00003ZM5 22C4.20435 22 3.44129 21.684 2.87868 21.1214C2.31607 20.5587 2 19.7957 2 19V17.414L6.878 12.536C7.1566 12.2573 7.4874 12.0361 7.85151 11.8852C8.21561 11.7343 8.60587 11.6567 9 11.6567C9.39413 11.6567 9.78439 11.7343 10.1485 11.8852C10.5126 12.0361 10.8434 12.2573 11.122 12.536L20.285 21.7C19.8848 21.8957 19.4455 21.9983 19 22H5Z" fill="#555555"/>
<path d="M16 10.5C16.6922 10.5 17.3689 10.2948 17.9445 9.91018C18.5201 9.52559 18.9687 8.97896 19.2336 8.33942C19.4985 7.69988 19.5678 6.99615 19.4327 6.31722C19.2977 5.63828 18.9644 5.01464 18.4749 4.52516C17.9854 4.03567 17.3617 3.70233 16.6828 3.56728C16.0039 3.43224 15.3001 3.50155 14.6606 3.76645C14.0211 4.03136 13.4744 4.47996 13.0899 5.05554C12.7053 5.63111 12.5 6.3078 12.5 7.00003C12.5 7.92829 12.8687 8.81853 13.5251 9.47491C14.1815 10.1313 15.0717 10.5 16 10.5ZM16 5.50003C16.2967 5.50003 16.5867 5.58801 16.8334 5.75283C17.08 5.91765 17.2723 6.15192 17.3858 6.42601C17.4993 6.7001 17.5291 7.0017 17.4712 7.29267C17.4133 7.58364 17.2704 7.85091 17.0607 8.06069C16.8509 8.27047 16.5836 8.41333 16.2926 8.47121C16.0017 8.52909 15.7001 8.49938 15.426 8.38585C15.1519 8.27232 14.9176 8.08006 14.7528 7.83339C14.588 7.58671 14.5 7.2967 14.5 7.00003C14.5 6.60221 14.658 6.22068 14.9393 5.93937C15.2206 5.65807 15.6022 5.50003 16 5.50003Z" fill="#555555"/>
</g>
<defs>
<clipPath id="clip0_49_47">
<rect width="24" height="24" fill="white"/>
</clipPath>
</defs>
</svg>
