<svg width="29" height="31" viewBox="0 0 29 31" fill="none" xmlns="http://www.w3.org/2000/svg">
<path d="M16.9062 30.0833H12.0937C11.8264 30.0833 11.5894 29.9983 11.3828 29.8281C11.1762 29.658 11.0486 29.4392 11 29.1719L10.4167 25.4896C9.95485 25.3194 9.46874 25.0885 8.95832 24.7969C8.44791 24.5052 7.99825 24.2014 7.60937 23.8854L4.21874 25.4531C3.95138 25.5746 3.68402 25.5929 3.41666 25.5078C3.1493 25.4227 2.9427 25.2465 2.79686 24.9792L0.390615 20.7135C0.244782 20.4705 0.208323 20.2153 0.28124 19.9479C0.354156 19.6805 0.49999 19.4618 0.71874 19.2917L3.85416 16.9948C3.80555 16.776 3.77516 16.5269 3.76301 16.2474C3.75086 15.9679 3.74478 15.7187 3.74478 15.5C3.74478 15.2812 3.75086 15.0321 3.76301 14.7526C3.77516 14.4731 3.80555 14.2239 3.85416 14.0052L0.71874 11.7083C0.49999 11.5382 0.354156 11.3194 0.28124 11.0521C0.208323 10.7847 0.244782 10.5295 0.390615 10.2864L2.79686 6.02082C2.9427 5.75346 3.1493 5.57725 3.41666 5.49218C3.68402 5.40711 3.95138 5.42534 4.21874 5.54686L7.60937 7.11457C7.99825 6.7986 8.44791 6.49478 8.95832 6.20311C9.46874 5.91145 9.95485 5.6927 10.4167 5.54686L11 1.82811C11.0486 1.56075 11.1762 1.342 11.3828 1.17186C11.5894 1.00173 11.8264 0.916656 12.0937 0.916656H16.9062C17.1736 0.916656 17.4106 1.00173 17.6172 1.17186C17.8238 1.342 17.9514 1.56075 18 1.82811L18.5833 5.51041C19.0451 5.68055 19.5373 5.90537 20.0599 6.18489C20.5825 6.4644 21.026 6.77429 21.3906 7.11457L24.7812 5.54686C25.0486 5.42534 25.316 5.40711 25.5833 5.49218C25.8507 5.57725 26.0573 5.75346 26.2031 6.02082L28.6094 10.25C28.7552 10.493 28.7977 10.7543 28.737 11.0338C28.6762 11.3134 28.5243 11.5382 28.2812 11.7083L25.1458 13.9323C25.1944 14.1753 25.2248 14.4366 25.237 14.7161C25.2491 14.9956 25.2552 15.2569 25.2552 15.5C25.2552 15.743 25.2491 15.9983 25.237 16.2656C25.2248 16.533 25.1944 16.7882 25.1458 17.0312L28.2812 19.2917C28.5 19.4618 28.6458 19.6805 28.7187 19.9479C28.7917 20.2153 28.7552 20.4705 28.6094 20.7135L26.2031 24.9792C26.0573 25.2465 25.8507 25.4227 25.5833 25.5078C25.316 25.5929 25.0486 25.5746 24.7812 25.4531L21.3906 23.8854C21.0017 24.2014 20.5581 24.5113 20.0599 24.8151C19.5616 25.1189 19.0694 25.3437 18.5833 25.4896L18 29.1719C17.9514 29.4392 17.8238 29.658 17.6172 29.8281C17.4106 29.9983 17.1736 30.0833 16.9062 30.0833ZM14.5 20.2396C15.8125 20.2396 16.9305 19.7778 17.8542 18.8542C18.7778 17.9305 19.2396 16.8125 19.2396 15.5C19.2396 14.1875 18.7778 13.0694 17.8542 12.1458C16.9305 11.2222 15.8125 10.7604 14.5 10.7604C13.1875 10.7604 12.0694 11.2222 11.1458 12.1458C10.2222 13.0694 9.76041 14.1875 9.76041 15.5C9.76041 16.8125 10.2222 17.9305 11.1458 18.8542C12.0694 19.7778 13.1875 20.2396 14.5 20.2396ZM14.5 18.0521C13.7951 18.0521 13.1936 17.8029 12.6953 17.3047C12.197 16.8064 11.9479 16.2049 11.9479 15.5C11.9479 14.7951 12.197 14.1936 12.6953 13.6953C13.1936 13.197 13.7951 12.9479 14.5 12.9479C15.2049 12.9479 15.8064 13.197 16.3047 13.6953C16.8029 14.1936 17.0521 14.7951 17.0521 15.5C17.0521 16.2049 16.8029 16.8064 16.3047 17.3047C15.8064 17.8029 15.2049 18.0521 14.5 18.0521ZM12.8958 27.8958H16.1042L16.6146 23.8125C17.4167 23.618 18.1762 23.3142 18.8932 22.901C19.6102 22.4878 20.2604 21.9896 20.8437 21.4062L24.7083 23.0833L26.1667 20.4583L22.7396 17.9427C22.8368 17.5295 22.9158 17.1224 22.9766 16.7213C23.0373 16.3203 23.0677 15.9132 23.0677 15.5C23.0677 15.0868 23.0434 14.6797 22.9948 14.2786C22.9462 13.8776 22.8611 13.4705 22.7396 13.0573L26.1667 10.5417L24.7083 7.91666L20.8437 9.59374C20.2847 8.96179 19.6528 8.43315 18.9479 8.0078C18.243 7.58246 17.4653 7.30902 16.6146 7.18749L16.1042 3.10416H12.8958L12.3854 7.18749C11.559 7.35763 10.7873 7.6493 10.0703 8.06249C9.35329 8.47568 8.71527 8.9861 8.15624 9.59374L4.29166 7.91666L2.83332 10.5417L6.26041 13.0573C6.16318 13.4705 6.08419 13.8776 6.02343 14.2786C5.96266 14.6797 5.93228 15.0868 5.93228 15.5C5.93228 15.9132 5.96266 16.3203 6.02343 16.7213C6.08419 17.1224 6.16318 17.5295 6.26041 17.9427L2.83332 20.4583L4.29166 23.0833L8.15624 21.4062C8.73957 21.9896 9.38975 22.4878 10.1068 22.901C10.8238 23.3142 11.5833 23.618 12.3854 23.8125L12.8958 27.8958Z" fill="url(#paint0_linear_87_84)"/>
<defs>
<linearGradient id="paint0_linear_87_84" x1="5.61951" y1="0.91666" x2="27.507" y2="4.10941" gradientUnits="userSpaceOnUse">
<stop stop-color="#02A4FF"/>
<stop offset="1" stop-color="#D96DFF"/>
</linearGradient>
</defs>
</svg>
